<svg width="33" height="17" viewBox="0 0 33 17" fill="none" xmlns="http://www.w3.org/2000/svg">
<path d="M32.252 10.6737L32.1076 10.8198V11.0074C32.1048 11.015 32.0983 11.0305 32.0847 11.0545C32.0524 11.1116 31.9938 11.1919 31.8983 11.2941C31.7074 11.4984 31.4095 11.7478 31.0055 12.0274C30.2006 12.5843 29.0307 13.2221 27.606 13.8253C24.7554 15.0321 20.9436 16.0752 17.0923 16.0752H17.0805L17.0686 16.0758C13.2932 16.2554 9.48166 15.6584 6.62899 14.6397C5.20082 14.1297 4.03876 13.5231 3.24387 12.8761C2.43946 12.2213 2.08407 11.5883 2.08407 11.0252V10.679L1.75995 10.5572C1.64386 10.5136 1.58282 10.4607 1.5478 10.4142C1.51254 10.3673 1.48219 10.2983 1.47284 10.1889C1.45263 9.95236 1.53658 9.58141 1.7941 9.08136C2.30211 8.09493 3.36901 6.82927 4.86173 5.57287C7.84488 3.062 12.3747 0.715459 17.0923 0.715454C21.3796 0.715457 25.514 2.96814 28.4149 5.44354C29.8617 6.67809 30.9759 7.94652 31.6332 8.97809C31.964 9.49714 32.1627 9.93095 32.2422 10.2537C32.2817 10.4141 32.2862 10.5253 32.2773 10.5951C32.273 10.6284 32.2661 10.6482 32.2615 10.6586C32.2572 10.6681 32.2538 10.6719 32.252 10.6737Z" fill="#FF66B2" stroke="#F5F5F5"/>
</svg>
